<?xml version="1.0" standalone="no"?>
<!DOCTYPE svg PUBLIC "-//W3C//DTD SVG 20010904//EN"
 "http://www.w3.org/TR/2001/REC-SVG-20010904/DTD/svg10.dtd">
<svg version="1.0" xmlns="http://www.w3.org/2000/svg"
 width="301.000000pt" height="301.000000pt" viewBox="0 0 301.000000 301.000000"
 preserveAspectRatio="xMidYMid meet">

<g transform="translate(0.000000,301.000000) scale(0.100000,-0.100000)"
fill="#e4e4e7" stroke="none">
<path d="M1395 2750 c-87 -16 -255 -79 -375 -141 -254 -131 -502 -348 -661
-577 -61 -88 -135 -235 -154 -308 -30 -118 -12 -246 50 -344 28 -45 130 -150
145 -150 5 0 31 29 59 63 163 206 415 388 653 472 l77 27 -24 38 c-43 68 -58
132 -53 228 4 70 10 98 34 146 95 194 324 276 519 185 75 -35 167 -131 195
-204 44 -118 35 -246 -25 -351 l-24 -40 68 -22 c103 -33 255 -112 356 -183 95
-68 254 -221 320 -307 21 -28 42 -52 46 -52 17 0 127 121 153 169 112 206 54
421 -195 726 -69 85 -242 254 -324 316 -162 124 -364 233 -525 284 -94 30
-230 40 -315 25z"/>
<path d="M1251 2108 l-92 -193 53 -47 c29 -26 55 -47 58 -48 3 0 27 65 55 145
27 80 52 145 55 145 4 0 30 -29 59 -65 29 -36 56 -65 61 -65 4 0 32 29 61 65
30 36 57 65 60 65 4 0 26 -55 49 -122 24 -68 47 -133 51 -146 9 -23 9 -23 63
20 30 24 55 46 55 50 1 11 -182 388 -188 387 -3 0 -37 -36 -75 -80 -38 -43
-72 -79 -76 -79 -3 0 -37 35 -75 78 -37 42 -71 78 -74 80 -4 1 -49 -84 -100
-190z"/>
<path d="M1402 1739 c-259 -24 -509 -142 -729 -343 -29 -26 -53 -54 -53 -61 0
-7 19 -23 43 -34 67 -32 169 -29 277 10 314 112 386 129 560 129 150 0 250
-20 451 -91 96 -33 198 -64 228 -69 67 -12 142 3 179 35 l27 24 -50 51 c-116
120 -324 248 -484 300 -143 45 -303 63 -449 49z"/>
<path d="M747 986 c-55 -50 -87 -127 -87 -208 0 -114 36 -169 125 -189 l53
-12 4 -48 c6 -55 42 -110 88 -134 38 -20 113 -19 153 1 29 16 32 16 42 -1 56
-97 166 -140 260 -101 18 8 52 33 75 57 l41 42 29 -35 c57 -69 164 -97 243
-64 30 12 79 60 102 101 10 17 13 17 42 1 39 -20 115 -21 151 -2 54 28 92
92 156 0 24 5 28 41 34 160 26 190 244 54 395 l-37 41 -60 -64 c-114 -125
-275 -222 -443 -268 -114 -30 -326 -30 -439 1 -164 44 -316 137 -432 265
l-61 65 -36 -33z"/>
</g>
</svg>
